<svg id="Layer_1" data-name="Layer 1" xmlns="http://www.w3.org/2000/svg" viewBox="0 0 1005 512"><defs><style>.cls-1,.cls-2{fill:none;stroke-linecap:round;stroke-linejoin:round;stroke-width:9px;}.cls-1{stroke:#000;}.cls-2{stroke:#a31a1a;}</style></defs><title>Artboard 7</title><polyline class="cls-1" points="601.5 164.5 601.5 282.97 685.5 164.54 685.5 283.5"/><path class="cls-1" d="M719.0025,221.6827s2.5779-54.6352,46.2252-56.6192c46.8894-2.1313,49.0207,56.0864,49.0207,56.0864,1.0657,8.5253-4.2627,62.4147-46.8894,61.349S718.47,232.8722,719.0025,221.6827Z"/><line class="cls-1" x1="888.5" y1="283.5" x2="888.5" y2="166.5"/><line class="cls-1" x1="846" y1="164.5" x2="932" y2="164.5"/><line class="cls-1" x1="387.5" y1="283.5" x2="387.5" y2="166.5"/><line class="cls-1" x1="345.5" y1="164.5" x2="431.5" y2="164.5"/><polyline class="cls-1" points="81.5 283 81.5 122.5 196.5 122.5 196.5 283"/><path class="cls-1" d="M235.7958,181.9376c4.499-2.1212,60.05-46.9793,76.9628,15.2169,0,0,2.4827-7.0869,0,72.2585"/><path class="cls-1" d="M313,240.6315S290.4146,282.5,265.5879,282.5s-35.9987-22.3039-35.9987-35.347S236.2785,219.98,312,214.5453"/><line class="cls-1" x1="465.5" y1="164.5" x2="465.5" y2="283.5"/><path class="cls-1" d="M552.0032,159.94c-2.7522-3.7651,8.6-13.0067,8.6-13.0067l-14.7927-14.7181s-6.5361,8.2148-12.7283,8.2148S528.2661,124,528.2661,124H506.5935s1.376,13.6913-3.44,16.0872-13.0725-7.8725-13.0725-7.8725l-14.9216,14.3759s8.3855,7.8725,8.3855,13.349S466,163.3624,466,163.3624v22.2483s15.1365-1.7114,16.8567,3.0806-7.6975,14.3758-7.6975,14.3758l14.2336,15.06s7.9124-9.2416,13.4165-9.2416S506.5935,226,506.5935,226h22.3608s-.6882-14.7181,2.752-17.4564,14.7927,8.2148,14.7927,8.2148l14.4482-14.0336c-10.1482-6.6745-8.6-12.6644-8.6-12.6644C553.895,182.7014,569,184.2416,569,184.2416V163.3624S554.7551,163.7047,552.0032,159.94ZM517,187a11,11,0,1,1,11-11A11,11,0,0,1,517,187Z"/><polyline class="cls-2" points="665.5 261.5 665.5 380.47 749.5 262.04 749.5 380.5"/><path class="cls-2" d="M371.9406,369.13s-79.9718,48.5323-77.8633-48.7425c.0261-1.1989.3364-54.6539,36.8354-58.1866s46.3176,42.55,46.8466,58.2873l-82.2593-.1"/><path class="cls-2" d="M865,265.94s-82.85-26.4-83.1161,57.4715C781.64,400.228,865,378.2287,865,378.2287"/><path class="cls-2" d="M260.2992,225.3291S148.2446,189.6231,147.8841,303.06c-.33,103.8948,112.4152,74.14,112.4152,74.14"/><path class="cls-2" d="M548.9512,322.1151c84.2692-7.71,83.0478,25.8621,83.0478,25.8621.1013,45.3794-84.499,31.55-84.499,31.55V262.72s72.1466-7.0583,78.2848,23.0224c6.2616,30.6851-41.9493,35.9443-39.7662,35.5121"/><line class="cls-2" x1="411" y1="262" x2="411" y2="381"/><path class="cls-2" d="M498.5032,258.44c-2.7522-3.7651,8.6-13.0067,8.6-13.0067l-14.7927-14.7181s-6.5361,8.2148-12.7283,8.2148-4.8164-16.43-4.8164-16.43H453.0935s1.376,13.6913-3.44,16.0872-13.0725-7.8725-13.0725-7.8725l-14.9216,14.3759s8.3855,7.8725,8.3855,13.349S412.5,261.8624,412.5,261.8624v22.2483s15.1365-1.7114,16.8567,3.0806-7.6975,14.3758-7.6975,14.3758l14.2336,15.06s7.9124-9.2416,13.4165-9.2416S453.0935,324.5,453.0935,324.5h22.3608s-.6882-14.7181,2.752-17.4564,14.7927,8.2148,14.7927,8.2148l14.4482-14.0336c-10.1482-6.6745-8.6-12.6644-8.6-12.6644,1.5479-7.359,16.6528-5.8188,16.6528-5.8188V261.8624S501.2551,262.2047,498.5032,258.44ZM462.5,284.5a11,11,0,1,1,11-11A11,11,0,0,1,462.5,284.5Z"/></svg>