<svg id="Layer_1" data-name="Layer 1" xmlns="http://www.w3.org/2000/svg" viewBox="0 0 1005 512"><defs><style>.cls-1,.cls-2{fill:none;stroke-linecap:square;stroke-linejoin:round;stroke-width:12px;}.cls-1{stroke:#000;}.cls-2{stroke:#a31a1a;}</style></defs><title>Artboard 9</title><polyline class="cls-1" points="602.5 159.5 602.5 277.97 686.5 159.54 686.5 278.5"/><path class="cls-1" d="M723.0025,216.6163s.4781-56.0686,46.2252-56.612c48.2724-.5734,48.0207,56.07,48.0207,56.07C817.5,224.5706,813.5,278.5,771.359,278.4989,726.4889,278.4977,722.47,228.002,723.0025,216.6163Z"/><line class="cls-1" x1="372.5" y1="278.5" x2="372.5" y2="161.5"/><line class="cls-1" x1="330.5" y1="159.5" x2="416.5" y2="159.5"/><polyline class="cls-1" points="66.5 279 66.5 117.5 181.5 117.5 181.5 279"/><path class="cls-1" d="M221.7958,177.9376c.6-.4614,60.4508-49.1846,77.9628,15.2169,0,0,3.645,9.5654.7413,85.3455"/><path class="cls-1" d="M299,238.6315S276.4146,278.5,251.5879,278.5s-35.9987-22.3039-35.9987-35.347S222.2785,215.98,298,210.5453"/><line class="cls-1" x1="887.5" y1="278.5" x2="887.5" y2="161.5"/><line class="cls-1" x1="845" y1="159.5" x2="931" y2="159.5"/><line class="cls-1" x1="451.5" y1="134.5" x2="451.5" y2="278.5"/><rect class="cls-1" x="451.5" y="118.5" width="90.5" height="83.5"/><polygon class="cls-1" points="542 148.667 567.5 117.5 567.5 201.5 542 176.333 542 148.667"/><polyline class="cls-2" points="661.5 358.745 661.5 477.715 745.5 359.285 745.5 477.745"/><path class="cls-2" d="M349.941,466.3747s-79.9718,48.5323-77.8633-48.7425c.0261-1.1989.3364-54.6539,36.8354-58.1866s46.3176,42.55,46.8466,58.2873l-82.2593-.1"/><path class="cls-2" d="M865,363.1851s-82.85-26.4-83.1161,57.4715C781.64,497.473,865,475.4736,865,475.4736"/><path class="cls-2" d="M240.3,322.574s-112.0546-35.706-112.4152,77.7306c-.33,103.8948,112.4152,74.14,112.4152,74.14"/><path class="cls-2" d="M543.9516,419.36c84.2692-7.71,83.0478,25.8621,83.0478,25.8621.1013,45.3794-84.499,31.55-84.499,31.55V359.965s72.1466-7.0583,78.2848,23.0224c6.2616,30.6851-41.9493,35.9443-39.7662,35.5121"/><line class="cls-2" x1="390.5" y1="333.5" x2="390.5" y2="477.5"/><rect class="cls-2" x="390.5" y="317.5" width="90.5" height="83.5"/><polygon class="cls-2" points="481 347.667 506.5 316.5 506.5 400.5 481 375.333 481 347.667"/></svg>