<svg id="Layer_1" data-name="Layer 1" xmlns="http://www.w3.org/2000/svg" viewBox="0 0 880 274"><defs><style>.cls-1,.cls-2,.cls-3,.cls-4{fill:none;stroke-miterlimit:10;}.cls-1,.cls-2{stroke:#000;}.cls-1,.cls-4{stroke-width:8px;}.cls-2,.cls-3{stroke-width:9px;}.cls-3,.cls-4{stroke:#a31a1a;}</style></defs><title>Artboard 7</title><line class="cls-1" x1="391" y1="78" x2="391" y2="172"/><path class="cls-1" d="M477.0032,48.94c-2.7522-3.7651,8.6-13.0067,8.6-13.0067L470.8108,21.2147S464.2747,29.43,458.0825,29.43,453.2661,13,453.2661,13H431.5935s1.376,13.6913-3.44,16.0872-13.0725-7.8725-13.0725-7.8725L400.1592,35.5906s8.3855,7.8725,8.3855,13.349S391,52.3624,391,52.3624V74.6107s15.1365-1.7114,16.8567,3.0806-7.6975,14.3758-7.6975,14.3758l14.2336,15.06s7.9124-9.2416,13.4165-9.2416S431.5935,115,431.5935,115h22.3608s-.6882-14.7181,2.752-17.4564,14.7927,8.2148,14.7927,8.2148l14.4482-14.0336c-10.1482-6.6745-8.6-12.6644-8.6-12.6644C478.895,71.7014,494,73.2416,494,73.2416V52.3624S479.7551,52.7047,477.0032,48.94ZM442,76a11,11,0,1,1,11-11A11,11,0,0,1,442,76Z"/><polyline class="cls-2" points="527.5 49 527.5 150.97 603.5 60.54 603.5 162"/><path class="cls-2" d="M637.0025,104.6827s.5779-48.6352,44.2252-50.6192c46.8894-2.1313,47.0207,50.0864,47.0207,50.0864,1.0657,8.5253-2.2627,55.4147-44.8894,54.349S636.47,115.8722,637.0025,104.6827Z"/><line class="cls-2" x1="797.5" y1="161" x2="797.5" y2="54"/><line class="cls-2" x1="757" y1="54.5" x2="839" y2="54.5"/><line class="cls-2" x1="320.5" y1="161" x2="320.5" y2="54"/><line class="cls-2" x1="280" y1="54.5" x2="362" y2="54.5"/><polyline class="cls-2" points="51.5 162 51.5 29.5 143.5 29.5 143.5 162"/><path class="cls-2" d="M182.0238,63.9376s56.52-30.4339,67.3893,15.2169c0,0,2.1738-1.0869,0,78.2585"/><path class="cls-2" d="M250.5,122.6315S229.8484,158.5,208.11,158.5s-31.5208-16.3039-31.5208-29.347S184.1976,101.98,250.5,96.5453"/><path class="cls-3" d="M192,131.31s-88.7143-28.1676-89,61.32c-.2614,81.96,89,58.4876,89,58.4876"/><path class="cls-3" d="M296.4406,244.7265s-75.9718,42.1314-73.8633-42.3139c.0261-1.0408.3364-45.7094,36.8354-48.7762S301.73,188.8379,302.2593,202.5L224,202.4128"/><path class="cls-3" d="M758.7966,155.4441s-72.679-23.0762-72.9128,50.2361c-.2142,67.1456,72.9128,47.9158,72.9128,47.9158"/><path class="cls-3" d="M471.7321,204.5638c71.5466-6.6136,70.51,22.1833,70.51,22.1833.086,38.9243-71.7418,27.0617-71.7418,27.0617V153.6176s61.2542-6.0543,66.4657,19.7476c5.3162,26.32-35.616,30.8313-33.7624,30.4606"/><polyline class="cls-3" points="576.5 148 576.5 249.97 652.5 158.54 652.5 261"/><line class="cls-4" x1="336" y1="169" x2="336" y2="261"/><path class="cls-4" d="M421.5032,149.44c-2.7522-3.7651,8.6-13.0067,8.6-13.0067l-14.7927-14.7181s-6.5361,8.2148-12.7283,8.2148-4.8164-16.43-4.8164-16.43H376.0935s1.376,13.6913-3.44,16.0872-13.0725-7.8725-13.0725-7.8725l-14.9216,14.3759s8.3855,7.8725,8.3855,13.349S335.5,152.8624,335.5,152.8624v22.2483s15.1365-1.7114,16.8567,3.0806-7.6975,14.3758-7.6975,14.3758l14.2336,15.06s7.9124-9.2416,13.4165-9.2416S376.0935,215.5,376.0935,215.5h22.3608s-.6882-14.7181,2.752-17.4564,14.7927,8.2148,14.7927,8.2148l14.4482-14.0336c-10.1482-6.6745-8.6-12.6644-8.6-12.6644,1.5479-7.359,16.6528-5.8188,16.6528-5.8188V152.8624S424.2551,153.2047,421.5032,149.44ZM387.5,175.5a11,11,0,1,1,11-11A11,11,0,0,1,387.5,175.5Z"/></svg>