<svg id="Layer_1" data-name="Layer 1" xmlns="http://www.w3.org/2000/svg" viewBox="0 0 1005 512"><defs><style>.cls-1,.cls-2{fill:none;stroke-linecap:round;stroke-linejoin:round;stroke-width:16px;}.cls-1{stroke:#000;}.cls-2{stroke:#a31a1a;}</style></defs><title>Artboard 9</title><polyline class="cls-1" points="602.5 130.5 602.5 248.97 686.5 130.54 686.5 249.5"/><path class="cls-1" d="M724.0025,187.6163s-.5219-56.0686,45.2252-56.612c48.2724-.5734,48.0207,56.07,48.0207,56.07C817.5,195.5706,818,247,771.359,249.4989,726.5531,251.8995,723.47,199.002,724.0025,187.6163Z"/><line class="cls-1" x1="372.5" y1="249.5" x2="372.5" y2="132.5"/><line class="cls-1" x1="330.5" y1="130.5" x2="416.5" y2="130.5"/><polyline class="cls-1" points="66.5 250 66.5 88.5 181.5 88.5 181.5 250"/><path class="cls-1" d="M221.7958,148.9376c.6-.4614,60.4508-49.1846,77.9628,15.2169,0,0,3.645,9.5654.7413,85.3455"/><path class="cls-1" d="M299,209.6315S276.4146,249.5,251.5879,249.5s-35.9987-22.3039-35.9987-35.347S222.2785,186.98,298,181.5453"/><line class="cls-1" x1="886.5" y1="249.5" x2="886.5" y2="132.5"/><line class="cls-1" x1="844" y1="130.5" x2="930" y2="130.5"/><polyline class="cls-2" points="661.5 338.745 661.5 457.715 745.5 339.285 745.5 457.745"/><path class="cls-2" d="M349.941,446.3747s-79.9718,48.5323-77.8633-48.7425c.0261-1.1989.3364-54.6539,36.8354-58.1866s46.3176,42.55,46.8466,58.2873l-82.2593-.1"/><path class="cls-2" d="M865,343.1851s-82.85-26.4-83.1161,57.4715C781.64,477.473,865,455.4736,865,455.4736"/><path class="cls-2" d="M240.3,302.574s-112.0546-35.706-112.4152,77.7306c-.33,103.8948,112.4152,74.14,112.4152,74.14"/><path class="cls-2" d="M543.9516,399.36c84.2692-7.71,83.0478,25.8621,83.0478,25.8621.1013,45.3794-84.499,31.55-84.499,31.55V339.965s72.1466-7.0583,78.2848,23.0224c6.2616,30.6851-41.9493,35.9443-39.7662,35.5121"/><line class="cls-2" x1="390.5" y1="301.5" x2="390.5" y2="457.5"/><rect class="cls-2" x="390.5" y="297.5" width="90.5" height="83.5"/><polygon class="cls-2" points="481 328.667 506.5 297.5 506.5 380.8 481 356.333 481 328.667"/><line class="cls-1" x1="451.5" y1="92.5" x2="451.5" y2="249.5"/><rect class="cls-1" x="451.5" y="89.5" width="90.5" height="83.5"/><polygon class="cls-1" points="542 120.667 567.5 89.5 567.5 172.8 542 148.333 542 120.667"/></svg>