<svg id="Layer_1" data-name="Layer 1" xmlns="http://www.w3.org/2000/svg" xmlns:xlink="http://www.w3.org/1999/xlink" viewBox="0 0 293.21 289.8"><defs><style>.cls-1{fill:#191818;}.cls-1,.cls-12{stroke:#2b0101;}.cls-1,.cls-10,.cls-11,.cls-12,.cls-3,.cls-4,.cls-5,.cls-6,.cls-7,.cls-8,.cls-9{stroke-miterlimit:10;}.cls-2{fill:url(#radial-gradient);}.cls-3{fill:none;}.cls-10,.cls-11,.cls-3,.cls-4,.cls-5,.cls-6,.cls-7,.cls-8,.cls-9{stroke:#191818;}.cls-10,.cls-11,.cls-4,.cls-5,.cls-6,.cls-7,.cls-8,.cls-9{stroke-width:2px;}.cls-4{fill:url(#linear-gradient);}.cls-5{fill:url(#linear-gradient-2);}.cls-6{fill:url(#linear-gradient-3);}.cls-7{fill:url(#linear-gradient-4);}.cls-8{fill:url(#linear-gradient-5);}.cls-9{fill:url(#linear-gradient-6);}.cls-10{fill:url(#linear-gradient-7);}.cls-11{fill:url(#linear-gradient-8);}.cls-12{fill:url(#radial-gradient-2);}</style><radialGradient id="radial-gradient" cx="504" cy="360" r="143.5" gradientUnits="userSpaceOnUse"><stop offset="0" stop-color="#bdbdbd"/><stop offset="0.03" stop-color="#b0b3b5"/><stop offset="0.15" stop-color="#89949e"/><stop offset="0.26" stop-color="#697a8b"/><stop offset="0.38" stop-color="#50667d"/><stop offset="0.51" stop-color="#3e5872"/><stop offset="0.64" stop-color="#33506c"/><stop offset="0.79" stop-color="#304d6a"/></radialGradient><linearGradient id="linear-gradient" x1="503.5" y1="260.5" x2="503.5" y2="314.5" gradientUnits="userSpaceOnUse"><stop offset="0" stop-color="#bdbdbd"/><stop offset="0.02" stop-color="#a6abaf"/><stop offset="0.06" stop-color="#87929d"/><stop offset="0.1" stop-color="#6b7c8d"/><stop offset="0.15" stop-color="#556b80"/><stop offset="0.21" stop-color="#445d76"/><stop offset="0.28" stop-color="#39546f"/><stop offset="0.38" stop-color="#324e6b"/><stop offset="0.65" stop-color="#304d6a"/></linearGradient><linearGradient id="linear-gradient-2" x1="504.5" y1="404.5" x2="504.5" y2="458.5" xlink:href="#linear-gradient"/><linearGradient id="linear-gradient-3" x1="568.13" y1="390.61" x2="568.13" y2="442.56" xlink:href="#linear-gradient"/><linearGradient id="linear-gradient-4" x1="575.67" y1="341" x2="575.67" y2="377" xlink:href="#linear-gradient"/><linearGradient id="linear-gradient-5" x1="431.67" y1="342" x2="431.67" y2="378" xlink:href="#linear-gradient"/><linearGradient id="linear-gradient-6" x1="568.83" y1="278.72" x2="568.83" y2="329.49" xlink:href="#linear-gradient"/><linearGradient id="linear-gradient-7" x1="441.94" y1="395.84" x2="441.94" y2="446.17" xlink:href="#linear-gradient"/><linearGradient id="linear-gradient-8" x1="443.53" y1="279.56" x2="443.53" y2="327.39" xlink:href="#linear-gradient"/><radialGradient id="radial-gradient-2" cx="531" cy="351" r="0" gradientUnits="userSpaceOnUse"><stop offset="0" stop-color="#bdbdbd"/><stop offset="0.03" stop-color="#a79b9b"/><stop offset="0.07" stop-color="#8f7777"/><stop offset="0.11" stop-color="#795757"/><stop offset="0.16" stop-color="#673b3b"/><stop offset="0.22" stop-color="#592525"/><stop offset="0.29" stop-color="#4e1414"/><stop offset="0.37" stop-color="#460909"/><stop offset="0.48" stop-color="#410202"/><stop offset="0.79" stop-color="#400000"/></radialGradient></defs><title>patrigot</title><path class="cls-1" d="M511.5,228.5s34,27,102,20c0,0-2,27-44,30S511.5,228.5,511.5,228.5Z" transform="translate(-359.54 -215.72)"/><path class="cls-1" d="M613.5,250.5s-2,60,38,110c0,0-33.41-6.75-43-25C577.5,276.5,613.5,250.5,613.5,250.5Z" transform="translate(-359.54 -215.72)"/><path class="cls-1" d="M404.5,464.5s37-15,99,40c0,0,9-48-18-58S404.5,464.5,404.5,464.5Z" transform="translate(-359.54 -215.72)"/><path class="cls-1" d="M616.5,474.5s-1-90,35-113c0,0-25.55-19.18-41,4C548.5,458.5,616.5,474.5,616.5,474.5Z" transform="translate(-359.54 -215.72)"/><path class="cls-1" d="M504.5,504.5s53-34,111-30c0,0-57-35-73-26S507.5,484.5,504.5,504.5Z" transform="translate(-359.54 -215.72)"/><path class="cls-1" d="M491.25,386.64s-13.12-20.08,6.25-35.14c18-14,33-.07,33-.07s-12.61-33.88-46.25-11.69C484.25,339.75,459.35,360.89,491.25,386.64Z" transform="translate(-359.54 -215.72)"/><path class="cls-2" d="M647.5,359.5c-53-53-36-108-36-108-64,18-108-35-108-35-44,53-107,35-107,35,17,71-36,109-36,109,73,37,36,107,36,107,73-28,108,36,108,36,46-64,108-35,108-35C593.5,387.5,647.5,359.5,647.5,359.5Zm-143,27a27,27,0,1,1,27-27A27,27,0,0,1,504.5,386.5Z" transform="translate(-359.54 -215.72)"/><path class="cls-3" d="M647.5,359.5c-53-53-36-108-36-108-64,18-108-35-108-35-44,53-107,35-107,35,17,71-36,109-36,109,73,37,36,107,36,107,73-28,108,36,108,36,46-64,108-35,108-35C593.5,387.5,647.5,359.5,647.5,359.5Zm-143,27a27,27,0,1,1,27-27A27,27,0,0,1,504.5,386.5Z" transform="translate(-359.54 -215.72)"/><path class="cls-4" d="M485.5,260.5s17,36,18,54c0,0,10-44,18-54C521.5,260.5,503.5,278.5,485.5,260.5Z" transform="translate(-359.54 -215.72)"/><path class="cls-5" d="M486.5,458.5s17-36,18-54c0,0,10,44,18,54C522.5,458.5,504.5,440.5,486.5,458.5Z" transform="translate(-359.54 -215.72)"/><path class="cls-6" d="M566.49,442.56s-11.82-38-23.25-52c0,0,37.12,25.66,49.77,27.62C593,418.22,567.59,417.13,566.49,442.56Z" transform="translate(-359.54 -215.72)"/><path class="cls-7" d="M602.83,377s-36.31-16.33-54.32-17c0,0,43.81-10.81,53.66-19C602.16,341,584.5,359.33,602.83,377Z" transform="translate(-359.54 -215.72)"/><path class="cls-8" d="M404.5,378s36.31-16.33,54.32-17c0,0-43.81-10.81-53.66-19C405.17,342,422.83,360.33,404.5,378Z" transform="translate(-359.54 -215.72)"/><path class="cls-9" d="M569,278.72s-13.64,37.4-25.73,50.77c0,0,38.31-23.84,51-25.18C594.35,304.31,568.9,304.17,569,278.72Z" transform="translate(-359.54 -215.72)"/><path class="cls-10" d="M416.21,420.16s37.77-12.6,51.46-24.32c0,0-24.88,37.64-26.58,50.33C441.09,446.17,441.66,420.72,416.21,420.16Z" transform="translate(-359.54 -215.72)"/><path class="cls-11" d="M439.36,279.56s17.44,35.79,30.86,47.83c0,0-40.58-19.73-53.39-19.75C416.83,307.65,442.14,304.87,439.36,279.56Z" transform="translate(-359.54 -215.72)"/><path class="cls-12" d="M531,351" transform="translate(-359.54 -215.72)"/></svg>